<svg width="350" height="350">
  <g featurekey="monogramFeature-0" transform="matrix(3.7095921548633752,0,0,3.7095921548633752,94.33226874230415,-25)"
    fill="#ede2e2">
    <path
      d="M9.66 75.42 c7.98 0 19.32 -6.06 23.7 -10.26 c0.66 -0.6 1.44 -0.12 0.84 0.54 c-5.82 6.48 -16.5 11.28 -23.82 11.28 c-6.24 0 -10.2 -3.72 -10.2 -8.64 c0 -3.36 0.9 -10.68 10.26 -22.62 c9.06 -11.58 17.82 -17.16 23.88 -17.16 c2.28 0 3.6 1.26 3.6 3.36 s-2.34 3.18 -1.68 1.92 s0.9 -3.84 -1.8 -3.84 c-2.94 0 -12.54 4.2 -23.04 17.16 c-7.2 8.82 -10.02 15.72 -10.02 21.18 c0 4.44 4.56 7.08 8.28 7.08 z">
    </path>
  </g>

</svg>