<svg width="350" height="100">
  <g featurekey="nameFeature-0" transform="matrix(1.2305583360166317,0,0,1.2305583360166317,-2.8118256100297025,0)"
    fill="#111111">
    <path
      d="M16.094 40.37109 c-7.832 0 -13.809 -5.3711 -13.809 -14.199 c0 -8.7891 5.9766 -14.16 13.809 -14.16 c5.5859 0 10.215 2.7734 12.344 7.5195 l-3.5938 1.4258 c-1.6016 -3.3789 -4.8633 -5.2734 -8.75 -5.2734 c-5.5469 0 -9.9414 3.8281 -9.9414 10.488 c0 6.6992 4.3945 10.527 9.9414 10.527 c3.8867 0 7.1484 -1.8945 8.75 -5.2734 l3.5938 1.4453 c-2.1289 4.7266 -6.7578 7.5 -12.344 7.5 z M55.72827734375 15.879000000000001 l-11.055 0 l0 8.5938 l9.7461 0 l0 3.4766 l-9.7461 0 l0 8.5352 l11.055 0 l0 3.5156 l-15.02 0 l0 -27.617 l15.02 0 l0 3.4961 z M72.6669546875 36.4844 l9.4336 0 l0 3.5156 l-13.32 0 l0 -27.617 l3.8867 0 l0 24.102 z M108.86401953125 15.879000000000001 l-11.055 0 l0 8.5938 l9.7461 0 l0 3.4766 l-9.7461 0 l0 8.5352 l11.055 0 l0 3.5156 l-15.02 0 l0 -27.617 l15.02 0 l0 3.4961 z M130.568796875 40.37109 c-5.7617 0 -9.9805 -2.7539 -10.918 -7.4414 l3.9648 -0.9375 c0.625 3.2227 3.418 5.0781 7.0898 5.0781 c2.9492 0 5.7813 -1.2109 5.7227 -4.5313 c-0.039063 -3.2813 -3.5938 -4.1797 -7.3633 -5.2148 c-4.2773 -1.1719 -8.5547 -2.5195 -8.5547 -7.5977 c0 -5.1367 4.2383 -7.7148 9.2578 -7.7148 c4.8633 0 9.2383 2.0508 10.273 6.7969 l-3.7695 0.95703 c-0.68359 -3.0664 -3.2422 -4.4336 -6.3281 -4.4336 c-2.7734 0 -5.5273 1.2109 -5.5273 4.3555 c0 2.8516 3.0859 3.6914 6.582 4.6289 c4.3945 1.1914 9.4336 2.5586 9.4336 8.1055 c0 5.5859 -4.6875 7.9492 -9.8633 7.9492 z M167.99535546875 12.383 l0 3.4961 l-6.9922 0 l0 24.121 l-3.8477 0 l0 -24.121 l-7.0117 0 l0 -3.4961 l17.852 0 z M179.7197078125 40 l0 -27.617 l3.8867 0 l0 27.617 l-3.8867 0 z M225.17441015625 41.3477 l-3.457 1.2109 l-3.7891 -4.1406 c-2.1484 1.2695 -4.707 1.9531 -7.4805 1.9531 c-7.8906 0 -13.906 -5.3906 -13.906 -14.199 c0 -8.7891 6.0156 -14.16 13.906 -14.16 c7.832 0 13.887 5.3711 13.887 14.16 c0 4.2578 -1.4258 7.7344 -3.7695 10.176 z M200.40871015625 26.172 c0 6.875 4.4336 10.703 10.039 10.703 c5.5859 0 9.9805 -3.8281 9.9805 -10.703 c0 -6.6602 -4.3945 -10.488 -9.9805 -10.488 c-5.6055 0 -10.039 3.8281 -10.039 10.488 z M247.1718125 40.37109 c-5.7227 0 -10.156 -3.3789 -10.156 -9.6094 l0 -18.379 l3.8867 0 l0 17.832 c0 4.5508 2.7344 6.6406 6.2695 6.6406 s6.3281 -2.1094 6.3281 -6.6406 l0 -17.832 l3.8867 0 l0 18.379 c0 6.2305 -4.4531 9.6094 -10.215 9.6094 z M286.70874609375 15.879000000000001 l-11.055 0 l0 8.5938 l9.7461 0 l0 3.4766 l-9.7461 0 l0 8.5352 l11.055 0 l0 3.5156 l-15.02 0 l0 -27.617 l15.02 0 l0 3.4961 z">
    </path>
  </g>
</svg>